{"title":"Streets of Blood-AC3-5,1-DVDRip[Eng]2009","uid":5004602,"size":1462383102,"categoryP":"video","categoryS":"movies","magnet":"?xt=urn:btih:fccd78cf934bae107fe705fa5d695c9ee5665d67&amp;dn=Streets+of+Blood-AC3-5%2C1-DVDRip%5BEng%5D2009&amp;tr=udp%3A%2F%2Ftracker.openbittorrent.com%3A80&amp;tr=udp%3A%2F%2Fopen.demonii.com%3A1337&amp;tr=udp%3A%2F%2Ftracker.coppersurfer.tk%3A6969&amp;tr=udp%3A%2F%2Fexodus.desync.com%3A6969","seeders":1,"leechers":0,"uploader":"FatFreddy31","files":3,"time":1247667569,"description":" &lt;a href=&quot;http://www.imdb.com/title/tt1203523/&quot; rel=&quot;nofollow&quot; target=&quot;_NEW&quot;&gt;http://www.imdb.com/title/tt1203523/&lt;/a&gt;\n\nUser Rating:4.9/10 - 593 votes\n\nCrime,Drama,Thriller\n\nDirector:Charles Winkler\n\nCast:Val Kilmer/Sharon Stone/50 Cent/Michael Biehn, and others.\n\nPlot:\nA police officer's partner has died during Hurricane Katrina, but he later discovers that his partner may have been murdered. An investigation follows, taking the officer and his new partner into the depths of the criminal underworld....\n\nInfo:\n\nGeneral\nComplete name                    : Streets of Blood-AC3-5,1-DVDRip[Eng]2009.avi\nFormat                           : AVI\nFormat/Info                      : Audio Video Interleave\nFile size                        : 1.36 GiB\nDuration                         : 1h 34mn\nOverall bit rate                 : 2 054 Kbps\nWriting application              : VirtualDubMod 1.5.4.1 (build 2178/release)\nWriting library                  : VirtualDubMod build 2178/release\n\nVideo\nFormat                           : MPEG-4 Visual\nFormat profile                   : Simple@L3\nFormat settings, BVOP            : No\nFormat settings, QPel            : No\nFormat settings, GMC             : No warppoints\nFormat settings, Matrix          : Default\nCodec ID                         : XVID\nCodec ID/Hint                    : XviD\nDuration                         : 1h 34mn\nBit rate                         : 1 597 Kbps\nWidth                            : 720 pixels\nHeight                           : 400 pixels\nDisplay aspect ratio             : 16/9\nFrame rate                       : 23.976 fps\nResolution                       : 24 bits\nColorimetry                      : 4:2:0\nScan type                        : Progressive\nBits/(Pixel*Frame)               : 0.231\nStream size                      : 1.06 GiB (78%)\nWriting library                  : XviD 1.1.2 (UTC 2006-11-01)\n\nAudio\nFormat                           : AC-3\nFormat/Info                      : Audio Coding 3\nCodec ID                         : 2000\nDuration                         : 1h 34mn\nBit rate mode                    : Constant\nBit rate                         : 448 Kbps\nChannel(s)                       : 6 channels\nChannel positions                : Front: L C R, Surround: L R, LFE\nSampling rate                    : 48.0 KHz\nStream size                      : 304 MiB (22%)\nAlignment                        : Split accross interleaves\nInterleave, duration             : 42 ms (1.00 video frame)\nInterleave, preload duration     : 500 ms\n\nEnjoy...","torrent":{"xt":"urn:btih:fccd78cf934bae107fe705fa5d695c9ee5665d67","amp;dn":"Streets+of+Blood-AC3-5%2C1-DVDRip%5BEng%5D2009","amp;tr":["udp%3A%2F%2Ftracker.openbittorrent.com%3A80","udp%3A%2F%2Fopen.demonii.com%3A1337","udp%3A%2F%2Ftracker.coppersurfer.tk%3A6969","udp%3A%2F%2Fexodus.desync.com%3A6969"],"infoHash":"fccd78cf934bae107fe705fa5d695c9ee5665d67","infoHashBuffer":{"type":"Buffer","data":[252,205,120,207,147,75,174,16,127,231,5,250,93,105,92,158,229,102,93,103]},"announce":[],"urlList":[]}}